# xmcd
#
# Track frame offsets: 
#        150
#        21100
#        38275
#        56825
#        77275
#        95762
#        114725
#        134262
#        149775
#        168500
#        184925
#        201350
#
# Disc length: 2955 seconds
#
# Revision: 0
# Processed by: cddbd v1.5.2PL0 Copyright (c) Steve Scherf et al.
# Submitted via: ExactAudioCopy v0.95b4
#
DISCID=a90b890c
DTITLE=Various Artist - 台語龍鳳榜CD2
DYEAR=1996
DGENRE=A Cappella
TTITLE0=傷心傷情傷自己
TTITLE1=醉醉醉
TTITLE2=父子情深
TTITLE3=心事
TTITLE4=夜夜夢夜夜空
TTITLE5=走味的咖啡
TTITLE6=疼惜我的吻
TTITLE7=歡喜就好
TTITLE8=野花
TTITLE9=有你的城市
TTITLE10=見面三分情
TTITLE11=心愛的甭哭
EXTD=
EXTT0=
EXTT1=
EXTT2=
EXTT3=
EXTT4=
EXTT5=
EXTT6=
EXTT7=
EXTT8=
EXTT9=
EXTT10=
EXTT11=
PLAYORDER=
